HIERARCHY
ROOT Pelvis
{
	OFFSET 0.000000 0.941512 0.000000
	CHANNELS 6 Xposition Yposition Zposition Zrotation Yrotation Xrotation 
	JOINT Pelvis_L_Hip
	{
		OFFSET 0.000000 0.000000 0.000000
		CHANNELS 3 Zrotation Yrotation Xrotation
		JOINT L_Hip
		{
			OFFSET 0.062321 -0.080322 -0.016990
			CHANNELS 3 Zrotation Yrotation Xrotation
			JOINT L_Knee
			{
				OFFSET 0.093051 -0.381305 -0.029784
				CHANNELS 3 Zrotation Yrotation Xrotation
				JOINT L_Ankle
				{
					OFFSET -0.010371 -0.431000 -0.033614
					CHANNELS 3 Zrotation Yrotation Xrotation
					End Site #name: L_Foot
					{
						OFFSET 0.069299 -0.038670 0.119418
					}
				}
			}
		}
	}
	JOINT Pelvis_R_Hip
	{
		OFFSET 0.000000 0.000000 0.000000
		CHANNELS 3 Zrotation Yrotation Xrotation
		JOINT R_Hip
		{
			OFFSET -0.055334 -0.094904 -0.002373
			CHANNELS 3 Zrotation Yrotation Xrotation
			JOINT R_Knee
			{
				OFFSET -0.064207 -0.384370 -0.019592
				CHANNELS 3 Zrotation Yrotation Xrotation
				JOINT R_Ankle
				{
					OFFSET 0.025418 -0.419734 -0.065953
					CHANNELS 3 Zrotation Yrotation Xrotation
					End Site #name: R_Foot
					{
						OFFSET -0.057233 -0.039888 0.132134
					}
				}
			}
		}
	}
	JOINT Pelvis_Spine1
	{
		OFFSET 0.000000 0.000000 0.000000
		CHANNELS 3 Zrotation Yrotation Xrotation
		JOINT Spine1
		{
			OFFSET -0.005562 0.124093 -0.043360
			CHANNELS 3 Zrotation Yrotation Xrotation
			JOINT Spine2
			{
				OFFSET 0.012244 0.139499 0.029894
				CHANNELS 3 Zrotation Yrotation Xrotation
				JOINT Spine3
				{
					OFFSET -0.002556 0.056561 0.009225
					CHANNELS 3 Zrotation Yrotation Xrotation
					JOINT Spine3_Neck
					{
						OFFSET 0.000000 0.000000 0.000000
						CHANNELS 3 Zrotation Yrotation Xrotation
						JOINT Neck
						{
							OFFSET -0.005205 0.217920 -0.024551
							CHANNELS 3 Zrotation Yrotation Xrotation
							End Site #name: Head
							{
								OFFSET 0.002365 0.091850 0.046637
							}
						}
					}
					JOINT Spine3_L_Collar
					{
						OFFSET 0.000000 0.000000 0.000000
						CHANNELS 3 Zrotation Yrotation Xrotation
						JOINT L_Collar
						{
							OFFSET 0.072225 0.116603 -0.009480
							CHANNELS 3 Zrotation Yrotation Xrotation
							JOINT L_Shoulder
							{
								OFFSET 0.115937 -0.058643 -0.021018
								CHANNELS 3 Zrotation Yrotation Xrotation
								JOINT L_Elbow
								{
									OFFSET 0.021994 -0.254722 -0.024492
									CHANNELS 3 Zrotation Yrotation Xrotation
									End Site #name: L_Wrist
									{
										OFFSET 0.048810 -0.240214 0.103329
									}
								}
							}
						}
					}
					JOINT Spine3_R_Collar
					{
						OFFSET 0.000000 0.000000 0.000000
						CHANNELS 3 Zrotation Yrotation Xrotation
						JOINT R_Collar
						{
							OFFSET -0.073372 0.120704 -0.024611
							CHANNELS 3 Zrotation Yrotation Xrotation
							JOINT R_Shoulder
							{
								OFFSET -0.108089 -0.054969 -0.020504
								CHANNELS 3 Zrotation Yrotation Xrotation
								JOINT R_Elbow
								{
									OFFSET -0.033684 -0.260739 0.009889
									CHANNELS 3 Zrotation Yrotation Xrotation
									End Site #name: R_Wrist
									{
										OFFSET -0.067980 -0.232763 0.118463
									}
								}
							}
						}
					}
				}
			}
		}
	}
}
MOTION
Frames: 5
Frame Time: 0.041667
-0.438186 0.934750 1.305709 0.069928 26.535678 3.202430 0.000000 0.000000 0.000000 -4.324606 0.049983 -1.423756 -10.053662 -4.477090 -29.550895 110.633037 57.367526 115.275478 0.000000 0.000000 0.000000 36.197258 -8.377775 6.134086 -30.564945 -1.527972 -14.045652 100.831842 -1.969539 102.242776 0.000000 0.000000 0.000000 2.802052 1.301361 -22.217331 -28.438411 -2.412286 -15.581620 39.834199 3.085558 47.889748 0.000000 0.000000 0.000000 -37.045343 -11.017682 -54.212810 0.000000 0.000000 0.000000 -95.402510 76.668013 -26.536517 14.111208 -0.684894 -58.661078 6.829714 3.226196 2.540540 0.000000 0.000000 0.000000 -53.994121 81.791521 -148.447486 -32.071509 15.315434 91.127090 24.376407 5.038442 14.729542 
-0.422921 0.921231 1.282291 -0.054832 25.550230 3.747881 0.000000 0.000000 0.000000 -4.546242 -0.253478 -2.588895 -12.010101 -5.262223 -30.951692 117.805818 57.625609 117.360928 0.000000 0.000000 0.000000 36.821650 -9.079524 7.076233 -27.704703 -0.645370 -12.481510 98.805034 -2.749552 101.865376 0.000000 0.000000 0.000000 3.496182 1.318473 -22.347964 -28.359839 -2.972191 -17.213449 37.566676 1.565670 49.731323 0.000000 0.000000 0.000000 -34.856113 -12.017292 -58.313260 0.000000 0.000000 0.000000 -113.032364 72.607858 -39.488152 17.827499 1.090920 -62.762439 8.340640 3.901806 3.302609 0.000000 0.000000 0.000000 -69.728322 87.328587 -170.562759 -39.805788 22.180326 89.670298 25.072249 3.985349 17.204988 
-0.404688 0.914509 1.256981 -0.521364 25.179187 3.962827 0.000000 0.000000 0.000000 -5.717016 -0.574177 -3.919718 -12.182203 -5.458238 -31.686217 120.815239 57.408715 118.614907 0.000000 0.000000 0.000000 37.652195 -9.686013 7.626521 -27.915449 -0.963968 -13.427338 98.399717 -3.611890 102.288726 0.000000 0.000000 0.000000 4.252583 1.320767 -22.412495 -28.224814 -3.215966 -17.939768 36.349420 0.908311 50.552259 0.000000 0.000000 0.000000 -33.480625 -12.207618 -60.037044 0.000000 0.000000 0.000000 -118.881886 69.966161 -42.763995 19.665744 2.082848 -64.824670 8.914011 4.233521 4.322225 0.000000 0.000000 0.000000 -164.802661 89.115178 91.500924 -43.868986 25.135272 87.932017 24.425908 3.217239 18.194631 
-0.383483 0.915323 1.227604 -1.035529 24.590905 3.782502 0.000000 0.000000 0.000000 -8.142782 -1.113145 -5.836113 -10.527076 -4.631731 -30.647196 120.524767 56.783862 119.414284 0.000000 0.000000 0.000000 37.662756 -10.019339 8.255613 -30.246407 -2.419918 -16.807360 99.491024 -3.966614 103.500239 0.000000 0.000000 0.000000 4.936738 1.303785 -21.918294 -28.015944 -3.277994 -18.286925 35.870299 0.653443 51.034803 0.000000 0.000000 0.000000 -33.041242 -12.368153 -60.975107 0.000000 0.000000 0.000000 -120.798758 68.851045 -43.843566 19.577597 2.031340 -64.923098 8.722716 4.205259 4.688694 0.000000 0.000000 0.000000 166.448941 88.249262 61.886679 -45.447761 26.321202 87.271909 24.188089 2.900965 18.636689 
-0.358825 0.922521 1.195730 -1.899224 23.536014 2.192727 0.000000 0.000000 0.000000 -10.758675 -1.335500 -6.444696 -8.512452 -3.553762 -28.801763 115.163162 56.573576 118.424297 0.000000 0.000000 0.000000 36.481189 -10.202756 9.456614 -31.627657 -3.133530 -18.290287 99.829315 -5.400233 104.645625 0.000000 0.000000 0.000000 5.827887 1.225763 -20.477851 -27.487082 -3.014728 -18.004138 35.721857 0.508866 51.595216 0.000000 0.000000 0.000000 -33.005841 -12.470371 -61.553550 0.000000 0.000000 0.000000 -122.407886 67.579867 -44.474068 19.129655 1.774431 -64.776838 8.218856 4.111067 5.439963 0.000000 0.000000 0.000000 -162.343363 88.442429 94.717436 -44.289006 25.389690 87.367588 23.965685 2.855912 18.572422 
